<?xml version="1.0" encoding="UTF-8"?>
<svg xmlns="http://www.w3.org/2000/svg" viewBox="0 0 220 48" fill="none">
  <rect x="2" y="6" width="36" height="36" rx="10" fill="#FFCC00"/>
  <path d="M14 16.5c0-.8.7-1.5 1.5-1.5h11c.8 0 1.5.7 1.5 1.5v2.2l1.6 1.2c.5.4.7 1 .5 1.6l-2.4 7.6c-.2.7-.9 1.2-1.6 1.2H15.4c-.7 0-1.4-.5-1.6-1.2l-2.4-7.6c-.2-.6 0-1.2.5-1.6l1.6-1.2V16.5zm3 1.5v1.5h10V18h-10zm-1.2 5.2 1.6 5.1h9.2l1.6-5.1H15.8z" fill="#1A1A1A"/>
  <text x="48" y="22" font-family="Arial, Helvetica, sans-serif" font-size="13" font-weight="700" fill="#1A1A1A">Яндекс</text>
  <text x="48" y="38" font-family="Arial, Helvetica, sans-serif" font-size="15" font-weight="800" fill="#1A1A1A">Маркет</text>
</svg>
